# xmcd
#
# Track frame offsets: 
#        150
#        14536
#        28946
#        49045
#        66179
#        78215
#        94843
#        105448
#        120253
#        135471
#        149565
#        167299
#        188205
#        203020
#
# Disc length: 2904 seconds
#
# Revision: 4
# Processed by: cddbd v1.5.2PL0 Copyright (c) Steve Scherf et al.
# Submitted via: ExactAudioCopy v1.0b3
#
DISCID=b30b560e
DTITLE=Gustav Peter Wöhler Band - Across The Universe
DYEAR=2004
DGENRE=Pop
TTITLE0=Close Your Eyes
TTITLE1=Across The Universe
TTITLE2=Sex Music und Prügeleien
TTITLE3=Have I Told You Lately
TTITLE4=Cello
TTITLE5=Time After Time
TTITLE6=Everyday
TTITLE7=Wär ich ein Buch
TTITLE8=Carrigfergus
TTITLE9=Red Red Wine
TTITLE10=Jealous Guy
TTITLE11=Ring Of Fire
TTITLE12=God Only Knows
TTITLE13=Blackbird
EXTD=Erschienen am 10.05.2004\nHardy Krüger Gitarre\nOlaf Casimir Bass
EXTD=\nKai Fischer Klavier\nGustav Peter Wöhler Gesang\nwww.gustavpete
EXTD=rwöehler.de\ninfo@kulturdienst.com\n
EXTT0=Taylor
EXTT1=Lennon/McCartney
EXTT2=Schmomi/Kayser
EXTT3=Morrison
EXTT4=Lindenberg
EXTT5=Lauper/Hyman
EXTT6=Petty/Hardin
EXTT7=Lightfoot/Lavi
EXTT8=Trad./arr. Gustav Peter Wöhler Band
EXTT9=Diamond
EXTT10=Lennon/McCartney
EXTT11=Kilgore/Carter
EXTT12=Wilson/Asher
EXTT13=Lennon/McCartney
PLAYORDER=
